<svg width="18" height="18" viewBox="0 0 18 18" fill="none" xmlns="http://www.w3.org/2000/svg">
<path d="M8.99178 11.6245C8.81654 11.6248 8.64672 11.5638 8.51178 11.452L4.01178 7.70197C3.85862 7.57467 3.7623 7.39174 3.74402 7.19342C3.72573 6.9951 3.78698 6.79764 3.91428 6.64447C4.04159 6.49131 4.22452 6.39499 4.42284 6.37671C4.62116 6.35842 4.81862 6.41967 4.97178 6.54697L8.99178 9.90697L13.0118 6.66697C13.0885 6.60468 13.1768 6.55815 13.2715 6.53008C13.3663 6.502 13.4656 6.49293 13.5639 6.50339C13.6622 6.51384 13.7574 6.54361 13.8442 6.591C13.9309 6.63838 14.0074 6.70243 14.0693 6.77947C14.138 6.85659 14.19 6.94706 14.2221 7.04522C14.2542 7.14337 14.2657 7.2471 14.2558 7.34989C14.2459 7.45269 14.215 7.55235 14.1648 7.64261C14.1146 7.73288 14.0464 7.81182 13.9643 7.87447L9.46428 11.497C9.32547 11.5911 9.15911 11.636 8.99178 11.6245Z" fill="white"/>
</svg>
