<svg width="10" height="10" viewBox="0 0 10 10" fill="none" xmlns="http://www.w3.org/2000/svg">
<path d="M6.17501 4.99999L9.75834 1.42499C9.91526 1.26807 10.0034 1.05524 10.0034 0.833325C10.0034 0.611407 9.91526 0.398578 9.75834 0.241658C9.60142 0.0847387 9.3886 -0.00341797 9.16668 -0.00341797C8.94476 -0.00341797 8.73193 0.0847387 8.57501 0.241658L5.00001 3.82499L1.42501 0.241658C1.26809 0.0847387 1.05526 -0.00341797 0.833344 -0.00341797C0.611425 -0.00341797 0.398597 0.0847387 0.241677 0.241658C0.0847571 0.398578 -0.00339961 0.611407 -0.00339961 0.833325C-0.00339961 1.05524 0.0847571 1.26807 0.241677 1.42499L3.82501 4.99999L0.241677 8.57499C0.16357 8.65246 0.101575 8.74463 0.0592675 8.84618C0.0169603 8.94773 -0.00482178 9.05665 -0.00482178 9.16666C-0.00482178 9.27667 0.0169603 9.38559 0.0592675 9.48714C0.101575 9.58869 0.16357 9.68086 0.241677 9.75832C0.319146 9.83643 0.411313 9.89843 0.512863 9.94073C0.614412 9.98304 0.723334 10.0048 0.833344 10.0048C0.943353 10.0048 1.05227 9.98304 1.15382 9.94073C1.25537 9.89843 1.34754 9.83643 1.42501 9.75832L5.00001 6.17499L8.57501 9.75832C8.65248 9.83643 8.74465 9.89843 8.8462 9.94073C8.94775 9.98304 9.05667 10.0048 9.16668 10.0048C9.27669 10.0048 9.38561 9.98304 9.48716 9.94073C9.58871 9.89843 9.68087 9.83643 9.75834 9.75832C9.83645 9.68086 9.89845 9.58869 9.94075 9.48714C9.98306 9.38559 10.0048 9.27667 10.0048 9.16666C10.0048 9.05665 9.98306 8.94773 9.94075 8.84618C9.89845 8.74463 9.83645 8.65246 9.75834 8.57499L6.17501 4.99999Z" fill="#00143C"/>
</svg>
