<svg width="52" height="52" viewBox="0 0 52 52" fill="none" xmlns="http://www.w3.org/2000/svg">
<g clip-path="url(#clip0_1_20615)">
<g filter="url(#filter0_i_1_20615)">
<rect width="52" height="52" rx="16" fill="#27304D"/>
</g>
<path d="M21.5022 24.5C22.6889 24.5 23.8489 24.1481 24.8356 23.4888C25.8223 22.8295 26.5914 21.8925 27.0455 20.7961C27.4996 19.6997 27.6184 18.4933 27.3869 17.3295C27.1554 16.1656 26.584 15.0965 25.7448 14.2574C24.9057 13.4182 23.8366 12.8468 22.6727 12.6153C21.5089 12.3838 20.3025 12.5026 19.2061 12.9567C18.1097 13.4109 17.1727 14.1799 16.5134 15.1666C15.8541 16.1533 15.5022 17.3133 15.5022 18.5C15.5022 20.0913 16.1343 21.6174 17.2596 22.7426C18.3848 23.8679 19.9109 24.5 21.5022 24.5ZM21.5022 15.5C22.0955 15.5 22.6756 15.6759 23.1689 16.0056C23.6623 16.3352 24.0468 16.8038 24.2738 17.352C24.5009 17.9001 24.5603 18.5033 24.4446 19.0853C24.3288 19.6672 24.0431 20.2018 23.6235 20.6213C23.204 21.0409 22.6694 21.3266 22.0875 21.4424C21.5055 21.5581 20.9023 21.4987 20.3541 21.2716C19.806 21.0446 19.3374 20.6601 19.0078 20.1667C18.6781 19.6734 18.5022 19.0933 18.5022 18.5C18.5022 17.7044 18.8183 16.9413 19.3809 16.3787C19.9435 15.8161 20.7065 15.5 21.5022 15.5Z" fill="white"/>
<path d="M33.5022 27.5C34.3922 27.5 35.2622 27.2361 36.0023 26.7416C36.7423 26.2472 37.3191 25.5444 37.6597 24.7221C38.0003 23.8998 38.0894 22.995 37.9157 22.1221C37.7421 21.2492 37.3135 20.4474 36.6842 19.818C36.0548 19.1887 35.253 18.7601 34.3801 18.5865C33.5072 18.4129 32.6024 18.502 31.7801 18.8426C30.9579 19.1832 30.2551 19.7599 29.7606 20.5C29.2661 21.24 29.0022 22.11 29.0022 23C29.0022 24.1935 29.4763 25.3381 30.3202 26.182C31.1641 27.0259 32.3087 27.5 33.5022 27.5ZM33.5022 21.5C33.7989 21.5 34.0889 21.588 34.3356 21.7528C34.5822 21.9176 34.7745 22.1519 34.888 22.426C35.0016 22.7001 35.0313 23.0017 34.9734 23.2927C34.9155 23.5836 34.7726 23.8509 34.5629 24.0607C34.3531 24.2705 34.0858 24.4133 33.7948 24.4712C33.5039 24.5291 33.2023 24.4994 32.9282 24.3858C32.6541 24.2723 32.4198 24.0801 32.255 23.8334C32.0902 23.5867 32.0022 23.2967 32.0022 23C32.0022 22.6022 32.1602 22.2207 32.4415 21.9394C32.7228 21.6581 33.1044 21.5 33.5022 21.5Z" fill="white"/>
<path d="M33.5022 29C31.8399 29.0018 30.2254 29.5558 28.9122 30.575C27.443 29.1115 25.5733 28.1159 23.5389 27.7136C21.5046 27.3114 19.3967 27.5205 17.481 28.3147C15.5654 29.1089 13.9278 30.4525 12.7748 32.1761C11.6218 33.8998 11.005 35.9263 11.0022 38C11.0022 38.3978 11.1602 38.7794 11.4415 39.0607C11.7228 39.342 12.1044 39.5 12.5022 39.5C12.9 39.5 13.2816 39.342 13.5629 39.0607C13.8442 38.7794 14.0022 38.3978 14.0022 38C14.0022 36.0109 14.7924 34.1032 16.1989 32.6967C17.6054 31.2902 19.5131 30.5 21.5022 30.5C23.4913 30.5 25.399 31.2902 26.8055 32.6967C28.212 34.1032 29.0022 36.0109 29.0022 38C29.0022 38.3978 29.1602 38.7794 29.4415 39.0607C29.7228 39.342 30.1044 39.5 30.5022 39.5C30.9 39.5 31.2816 39.342 31.5629 39.0607C31.8442 38.7794 32.0022 38.3978 32.0022 38C32.0058 36.2426 31.5618 34.5133 30.7122 32.975C31.3751 32.4512 32.172 32.1245 33.0119 32.0325C33.8517 31.9404 34.7005 32.0867 35.4611 32.4545C36.2218 32.8222 36.8635 33.3967 37.3129 34.1122C37.7622 34.8276 38.0011 35.6551 38.0022 36.5C38.0022 36.8978 38.1602 37.2794 38.4415 37.5607C38.7228 37.842 39.1044 38 39.5022 38C39.9 38 40.2816 37.842 40.5629 37.5607C40.8442 37.2794 41.0022 36.8978 41.0022 36.5C41.0022 34.5109 40.212 32.6032 38.8055 31.1967C37.399 29.7902 35.4913 29 33.5022 29Z" fill="white"/>
</g>
<defs>
<filter id="filter0_i_1_20615" x="0" y="0" width="52" height="52" filterUnits="userSpaceOnUse" color-interpolation-filters="sRGB">
<feFlood flood-opacity="0" result="BackgroundImageFix"/>
<feBlend mode="normal" in="SourceGraphic" in2="BackgroundImageFix" result="shape"/>
<feColorMatrix in="SourceAlpha" type="matrix" values="0 0 0 0 0 0 0 0 0 0 0 0 0 0 0 0 0 0 127 0" result="hardAlpha"/>
<feOffset dy="1"/>
<feComposite in2="hardAlpha" operator="arithmetic" k2="-1" k3="1"/>
<feColorMatrix type="matrix" values="0 0 0 0 1 0 0 0 0 1 0 0 0 0 1 0 0 0 0.25 0"/>
<feBlend mode="normal" in2="shape" result="effect1_innerShadow_1_20615"/>
</filter>
<clipPath id="clip0_1_20615">
<rect width="52" height="52" fill="white"/>
</clipPath>
</defs>
</svg>
