<svg width="40" height="40" viewBox="0 0 40 40" fill="none" xmlns="http://www.w3.org/2000/svg">
<path d="M20.6615 38C12.4183 37.9783 5.23595 32.913 2.89297 25.3577C0.936162 19.0269 2.20481 13.2404 6.60608 8.18347C9.31171 5.07588 12.8008 3.17111 16.9025 2.35598C19.197 1.90076 21.5604 1.88195 23.8622 2.3006C24.1196 2.34635 24.1221 2.41377 24.0218 2.61605C22.8897 4.90852 21.763 7.2042 20.6416 9.50309C20.6139 9.57497 20.5623 9.63585 20.4951 9.67616C20.4279 9.71648 20.3489 9.73395 20.2703 9.72583C17.9119 9.78449 15.6413 10.6088 13.8199 12.0675C11.9986 13.5262 10.731 15.5356 10.2189 17.776C9.08892 22.6727 11.8119 27.7381 16.6166 29.5333C20.43 30.9576 23.9785 30.3905 27.2064 27.956C27.371 27.8356 27.4391 27.8115 27.5567 28.0102C28.7944 30.1172 30.0428 32.2203 31.302 34.3193C31.4122 34.5035 31.3725 34.5866 31.2092 34.6974C28.7778 36.3707 25.9653 37.445 23.0131 37.8278C22.2329 37.9257 21.4479 37.9832 20.6615 38Z" fill="#EF492D"/>
<path d="M33.4673 32.7864C33.3658 32.7335 33.3373 32.6251 33.2854 32.5372C31.8777 30.1693 30.4749 27.799 29.0772 25.4262C29.0296 25.329 28.9521 25.2487 28.8553 25.1964C28.7586 25.1442 28.6475 25.1227 28.5375 25.1349C25.7428 25.1433 22.9493 25.1349 20.1545 25.1349H19.8068C19.8043 25.0304 19.8433 24.9291 19.9157 24.8519C21.3349 22.4535 22.755 20.0551 24.1759 17.6566C24.2136 17.5773 24.2759 17.5115 24.354 17.4683C24.4321 17.4251 24.5222 17.4068 24.6115 17.4158C27.4723 17.4231 30.3322 17.4231 33.1913 17.4158C33.2802 17.4068 33.3697 17.4252 33.4472 17.4684C33.5248 17.5116 33.5863 17.5775 33.6233 17.6566C35.0499 20.0751 36.4832 22.4904 37.923 24.9025C37.9711 24.9643 37.9982 25.0392 38.0004 25.1167C38.0026 25.1942 37.9799 25.2704 37.9354 25.3347C36.489 27.7644 35.0479 30.1918 33.6121 32.6167C33.5738 32.6781 33.5564 32.7624 33.4673 32.7864Z" fill="#EF492D"/>
<path d="M27.4423 7.31701C26.9299 6.81854 26.4522 6.34174 25.9571 5.87217C25.8036 5.72769 25.9113 5.62053 25.9769 5.51097C26.5434 4.55133 27.4658 3.83883 28.555 3.5195C29.2151 3.30761 29.9134 3.23243 30.6051 3.29878C31.2968 3.36514 31.9666 3.57157 32.5714 3.90479C34.7992 5.07631 34.6 7.7938 33.314 9.02191C32.8265 9.4786 32.2742 9.86501 31.674 10.1693C31.0552 10.4896 30.4363 10.7918 29.8299 11.1326C29.3261 11.4131 28.9338 11.8008 28.7518 12.3619C28.6776 12.5882 28.7221 12.6472 28.9709 12.6448C30.6071 12.6352 32.2446 12.6448 33.8821 12.6352C34.1296 12.6352 34.2225 12.6809 34.2126 12.9434C34.1903 13.5057 34.199 14.0692 34.2126 14.6291C34.2126 14.8073 34.1618 14.8699 33.9737 14.8699C31.3423 14.8651 28.7118 14.8651 26.0821 14.8699C25.9583 14.8699 25.8432 14.8699 25.842 14.6953C25.842 12.923 26.1786 11.2722 27.6045 10.008C28.2836 9.42292 29.0461 8.93629 29.8682 8.56317C30.3188 8.34886 30.7742 8.14417 31.1678 7.83353C31.5119 7.56142 31.7495 7.23152 31.7743 6.78603C31.8114 6.0889 31.2446 5.57117 30.3881 5.51699C29.1566 5.4315 28.2679 5.9709 27.6466 6.97265C27.5847 7.07138 27.5277 7.17252 27.4423 7.31701Z" fill="#EF492D"/>
<path d="M33.7164 35.3099V34.7308H33.5035V34.6104H34.0741V34.7308H33.8587V35.3099H33.7164ZM34.1657 35.3099V34.6128H34.3823L34.506 35.0884L34.6298 34.6128H34.8477V35.3099H34.7251V34.7609L34.5828 35.3099H34.4429L34.3018 34.7609V35.3099H34.1657Z" fill="#EF492D"/>
</svg>
 