<svg width="40" height="40" viewBox="0 0 40 40" fill="none" xmlns="http://www.w3.org/2000/svg">
<path d="M39.7458 18.9478L29.0554 8.25736C28.6858 7.91421 28.1315 7.91421 27.7883 8.25736L25.6767 10.3691L34.2554 18.9478C34.5985 19.2909 34.5985 19.8717 34.2554 20.2148L25.4127 29.0575L27.5244 31.1692C27.8939 31.5123 28.4482 31.5123 28.7914 31.1692L39.7194 20.2412C40.0889 19.8717 40.0889 19.3173 39.7458 18.9478Z" fill="#009C9C"/>
<path d="M21.5325 9.04922L20.767 8.28373C20.3975 7.94058 19.8432 7.94058 19.5 8.28373L17.3883 10.3954L18.7873 11.7944L21.5325 14.5396L24.2777 11.7944L21.5325 9.04922Z" fill="#40E3E3"/>
<path d="M21.2953 24.9395L18.5501 27.6846L17.1512 29.0836L19.2628 31.1953C19.6324 31.5385 20.1867 31.5385 20.5299 31.1953L21.2953 30.4298L24.0405 27.6846L21.2953 24.9395Z" fill="#40E3E3"/>
<path d="M25.9938 18.9473C26.3369 19.3169 26.3369 19.8712 25.9938 20.2143L21.2953 24.9128L24.0405 27.658L31.4842 20.2143C31.8273 19.8712 31.8273 19.2905 31.4842 18.9473L24.3044 11.7676L21.5328 14.5128L25.9938 18.9473Z" fill="#1ABAB8"/>
<path d="M8.54574 19.2118L15.9894 11.7681L13.2443 9.02285L12.4524 8.25736C12.0828 7.91421 11.5285 7.91421 11.1854 8.25736L0.257362 19.2118C-0.0857874 19.5549 -0.0857874 20.1356 0.257362 20.4788L10.9478 31.1692C11.3173 31.5123 11.8717 31.5123 12.2148 31.1692L13.0067 30.4037L15.7519 27.6585L8.57214 20.4788C8.20259 20.1356 8.20259 19.5813 8.54574 19.2118Z" fill="#87F0F0"/>
<path d="M16.8344 19.2117L20.1075 15.9386L17.3623 13.1934L15.9633 11.7944L8.57243 19.2381C8.22928 19.5813 8.22928 20.162 8.57243 20.5052L15.7258 27.6585L17.1248 26.2595L19.87 23.5143L16.8344 20.4788C16.4913 20.162 16.4913 19.5813 16.8344 19.2117Z" fill="#40E3E3"/>
<path d="M16.834 20.4781L19.8695 23.5137L23.1427 20.2406C23.4858 19.8974 23.4858 19.3167 23.1427 18.9735L20.1071 15.938L16.834 19.2111C16.5172 19.5807 16.5172 20.135 16.834 20.4781Z" fill="#17CFCF"/>
</svg>
