<svg width="94" height="79" viewBox="0 0 94 79" fill="none" xmlns="http://www.w3.org/2000/svg">
<path d="M2.51778 69.7518C2.13807 69.5863 1.69609 69.76 1.53058 70.1397C1.36508 70.5194 1.53873 70.9614 1.91844 71.1269L2.51778 69.7518ZM53.8984 30.5037L53.4962 29.8707L53.496 29.8708L53.8984 30.5037ZM63.3007 67.4687L63.4148 66.7275L63.4147 66.7274L63.3007 67.4687ZM86.8495 0.770181C86.6384 0.413794 86.1783 0.296022 85.822 0.507126C85.4656 0.718223 85.3478 1.17826 85.5589 1.53465L86.8495 0.770181ZM4.56298 78.5638C4.74009 78.9382 5.1872 79.0982 5.56165 78.9211C5.93609 78.744 6.09606 78.2969 5.91896 77.9224L4.56298 78.5638ZM1.41567 70.1554L1.01255 69.5229C0.693908 69.726 0.57612 70.1345 0.737683 70.4761L1.41567 70.1554ZM9.3601 65.76C9.68441 65.5023 9.73842 65.0305 9.48074 64.7062C9.22306 64.3819 8.75127 64.3279 8.42696 64.5855L9.3601 65.76ZM2.21811 70.4394C1.91844 71.1269 1.9188 71.127 1.9193 71.1273C1.91967 71.1274 1.92032 71.1277 1.92104 71.128C1.9225 71.1287 1.92455 71.1295 1.92717 71.1307C1.93243 71.133 1.94002 71.1362 1.94993 71.1405C1.96973 71.149 1.99877 71.1614 2.03683 71.1776C2.11294 71.2099 2.22511 71.257 2.37155 71.3172C2.66443 71.4378 3.09447 71.6111 3.64739 71.824C4.7531 72.2496 6.35093 72.8336 8.3265 73.4701C12.2755 74.7423 17.7446 76.2278 23.8161 77.0746C35.913 78.7618 50.6392 77.943 60.3582 67.5207L59.2612 66.4977C50.0624 76.3621 35.9928 77.2584 24.0233 75.589C18.0617 74.7575 12.68 73.2967 8.78648 72.0424C6.84079 71.4155 5.26943 70.8411 4.18626 70.4241C3.64474 70.2157 3.22543 70.0466 2.94256 69.9302C2.80113 69.872 2.69383 69.8269 2.62244 69.7966C2.58674 69.7815 2.56002 69.77 2.5425 69.7625C2.53375 69.7587 2.52729 69.7559 2.52316 69.7542C2.52109 69.7533 2.51961 69.7526 2.51871 69.7522C2.51827 69.752 2.51803 69.7519 2.51781 69.7518C2.51772 69.7518 2.51778 69.7518 2.21811 70.4394ZM60.3582 67.5207C69.9928 57.189 71.0843 46.1939 68.3852 38.5305C67.0417 34.7158 64.7466 31.7012 62.0719 30.0511C59.3763 28.388 56.2685 28.1095 53.4962 29.8707L54.3006 31.1368C56.5011 29.7388 58.9833 29.9081 61.2843 31.3277C63.6064 32.7602 65.7146 35.4632 66.9704 39.0288C69.47 46.1259 68.5444 56.5428 59.2612 66.4977L60.3582 67.5207ZM53.496 29.8708C50.8156 31.5747 48.8097 34.6542 47.6064 38.2698C46.3991 41.8974 45.9717 46.1422 46.5138 50.2827C47.5993 58.5738 52.6147 66.5843 63.1867 68.21L63.4147 66.7274C53.6831 65.231 49.0263 57.9189 48.0011 50.088C47.4878 46.1675 47.8954 42.1515 49.0296 38.7435C50.1679 35.3235 52.0102 32.5927 54.3007 31.1367L53.496 29.8708ZM63.1866 68.21C68.546 69.0349 73.7703 66.9121 78.2798 62.9404C82.7885 58.9694 86.6386 53.1083 89.3064 46.2963C94.638 32.6826 95.3204 15.0708 86.8495 0.770181L85.5589 1.53465C93.7379 15.3426 93.1178 32.451 87.9097 45.7493C85.3077 52.3933 81.5787 58.0362 77.2884 61.8147C72.999 65.5925 68.2046 67.4647 63.4148 66.7275L63.1866 68.21ZM5.91896 77.9224L2.09366 69.8347L0.737683 70.4761L4.56298 78.5638L5.91896 77.9224ZM1.41567 70.1554C1.81879 70.7878 1.81882 70.7878 1.81888 70.7878C1.81893 70.7878 1.819 70.7877 1.8191 70.7876C1.8193 70.7875 1.81959 70.7873 1.81997 70.7871C1.82073 70.7866 1.82185 70.7859 1.82334 70.7849C1.82632 70.783 1.83075 70.7802 1.83659 70.7765C1.84827 70.769 1.86557 70.758 1.88818 70.7436C1.93339 70.7147 1.9998 70.6723 2.08477 70.6179C2.25471 70.5091 2.4989 70.3526 2.7962 70.1615C3.3907 69.7791 4.19798 69.2578 5.04865 68.7021C6.73241 67.602 8.63788 66.3338 9.3601 65.76L8.42696 64.5855C7.77277 65.1053 5.93931 66.3284 4.22824 67.4463C3.3815 67.9995 2.5774 68.5188 1.98486 68.8998C1.68864 69.0903 1.44541 69.2462 1.27629 69.3544C1.19174 69.4085 1.12572 69.4507 1.08088 69.4793C1.05846 69.4936 1.04134 69.5046 1.02984 69.5119C1.02409 69.5156 1.01975 69.5183 1.01685 69.5202C1.01541 69.5211 1.01432 69.5218 1.0136 69.5223C1.01324 69.5225 1.01297 69.5227 1.0128 69.5228C1.01271 69.5228 1.01265 69.5229 1.01261 69.5229C1.01257 69.5229 1.01255 69.5229 1.41567 70.1554Z" fill="#00143C"/>
</svg>
