<svg width="40" height="40" viewBox="0 0 40 40" fill="none" xmlns="http://www.w3.org/2000/svg">
<path fill-rule="evenodd" clip-rule="evenodd" d="M7 10.5C7 9.67157 7.67157 9 8.5 9H31.5C32.3284 9 33 9.67157 33 10.5C33 11.3284 32.3284 12 31.5 12H8.5C7.67157 12 7 11.3284 7 10.5Z" fill="white"/>
<path fill-rule="evenodd" clip-rule="evenodd" d="M7 19.5C7 18.6716 7.67157 18 8.5 18H31.5C32.3284 18 33 18.6716 33 19.5C33 20.3284 32.3284 21 31.5 21H8.5C7.67157 21 7 20.3284 7 19.5Z" fill="white"/>
<path fill-rule="evenodd" clip-rule="evenodd" d="M7 28.5C7 27.6716 7.67157 27 8.5 27H31.5C32.3284 27 33 27.6716 33 28.5C33 29.3284 32.3284 30 31.5 30H8.5C7.67157 30 7 29.3284 7 28.5Z" fill="white"/>
</svg>
 