<svg width="16" height="16" viewBox="0 0 16 16" fill="none" xmlns="http://www.w3.org/2000/svg">
<path d="M12.4455 15.9959C12.3173 15.9964 12.1908 15.9647 12.0767 15.9033L7.98797 13.6559L3.89924 15.9033C3.76647 15.9766 3.61677 16.0093 3.46717 15.9977C3.31757 15.9861 3.17407 15.9307 3.05297 15.8378C2.93187 15.7449 2.83804 15.6181 2.78214 15.472C2.72624 15.3258 2.71052 15.1661 2.73675 15.0111L3.53847 10.2723L0.235407 6.90545C0.132353 6.79748 0.0592477 6.66208 0.0239372 6.5138C-0.0113733 6.36551 -0.00755635 6.20992 0.0349786 6.06374C0.0814458 5.91415 0.166922 5.78123 0.281706 5.68006C0.39649 5.57889 0.535987 5.51352 0.684366 5.49138L5.25413 4.79277L7.26643 0.474815C7.33208 0.332507 7.43458 0.212491 7.56219 0.128515C7.6898 0.044539 7.83737 0 7.98797 0C8.13858 0 8.28614 0.044539 8.41375 0.128515C8.54137 0.212491 8.64387 0.332507 8.70952 0.474815L10.7459 4.78435L15.3156 5.48296C15.464 5.50511 15.6035 5.57047 15.7183 5.67164C15.8331 5.77281 15.9186 5.90573 15.965 6.05532C16.0076 6.20151 16.0114 6.35709 15.9761 6.50538C15.9408 6.65367 15.8676 6.78906 15.7646 6.89703L12.4615 10.2639L13.2632 15.0027C13.2919 15.1605 13.2769 15.3236 13.2201 15.4727C13.1632 15.6219 13.0669 15.7508 12.9426 15.8444C12.7974 15.9512 12.6226 16.0045 12.4455 15.9959Z" fill="#F9E215"/>
</svg>
