<svg width="24" height="24" viewBox="0 0 24 24" fill="none" xmlns="http://www.w3.org/2000/svg">
<rect width="24" height="24" rx="6" fill="#F6EDDF"/>
<g clip-path="url(#clip0_2_1355)">
<g clip-path="url(#clip1_2_1355)">
<path d="M13.1694 6.09375C13.2588 6.09375 13.3458 6.1221 13.4179 6.17472C13.4901 6.22733 13.5437 6.3015 13.5711 6.38653L14.0351 7.8285C14.23 7.92384 14.4165 8.031 14.5945 8.15166L16.0762 7.83272C16.1635 7.81407 16.2545 7.82363 16.3361 7.86002C16.4177 7.89641 16.4856 7.95775 16.5301 8.03522L17.6995 10.0594C17.7442 10.1368 17.7631 10.2264 17.7535 10.3153C17.744 10.4041 17.7065 10.4877 17.6464 10.5538L16.6297 11.676C16.6445 11.8912 16.6445 12.1071 16.6297 12.3223L17.6464 13.4462C17.7065 13.5123 17.744 13.5959 17.7535 13.6847C17.7631 13.7736 17.7442 13.8632 17.6995 13.9406L16.5301 15.9656C16.4855 16.0429 16.4175 16.1041 16.3359 16.1403C16.2544 16.1766 16.1634 16.186 16.0762 16.1673L14.5945 15.8483C14.4173 15.9682 14.23 16.0762 14.036 16.1715L13.5711 17.6135C13.5437 17.6985 13.4901 17.7727 13.4179 17.8253C13.3458 17.8779 13.2588 17.9062 13.1694 17.9062H10.8306C10.7412 17.9062 10.6542 17.8779 10.5821 17.8253C10.5099 17.7727 10.4563 17.6985 10.4289 17.6135L9.96572 16.1723C9.77134 16.0773 9.58385 15.9687 9.40462 15.8475L7.92384 16.1673C7.83649 16.1859 7.74546 16.1764 7.66389 16.14C7.58231 16.1036 7.51439 16.0422 7.46991 15.9648L6.30047 13.9406C6.25581 13.8632 6.2369 13.7736 6.24645 13.6847C6.256 13.5959 6.29353 13.5123 6.35362 13.4462L7.37034 12.3223C7.35562 12.1077 7.35562 11.8923 7.37034 11.6777L6.35362 10.5538C6.29353 10.4877 6.256 10.4041 6.24645 10.3153C6.2369 10.2264 6.25581 10.1368 6.30047 10.0594L7.46991 8.03437C7.51451 7.95707 7.58248 7.89589 7.66405 7.85966C7.74562 7.82342 7.83658 7.81399 7.92384 7.83272L9.40462 8.1525C9.5835 8.03184 9.77081 7.923 9.96572 7.82766L10.4298 6.38653C10.457 6.30177 10.5104 6.2278 10.5822 6.17521C10.6541 6.12262 10.7407 6.09411 10.8297 6.09375H13.1686H13.1694ZM12.8606 6.9375H11.1394L10.6601 8.42841L10.337 8.58619C10.1781 8.66393 10.0247 8.75245 9.87797 8.85113L9.57928 9.05362L8.04703 8.72288L7.18641 10.2146L8.23687 11.3773L8.21156 11.7351C8.19944 11.9115 8.19944 12.0885 8.21156 12.2649L8.23687 12.6227L7.18472 13.7854L8.04619 15.2771L9.57844 14.9472L9.87713 15.1489C10.0239 15.2476 10.1773 15.3361 10.3361 15.4138L10.6593 15.5716L11.1394 17.0625H12.8623L13.3433 15.5708L13.6656 15.4138C13.8243 15.3363 13.9773 15.2477 14.1237 15.1489L14.4216 14.9472L15.9547 15.2771L16.8153 13.7854L15.764 12.6227L15.7893 12.2649C15.8014 12.0882 15.8014 11.9109 15.7893 11.7342L15.764 11.3765L16.8161 10.2146L15.9547 8.72288L14.4216 9.05194L14.1237 8.85113C13.9774 8.75225 13.8243 8.66372 13.6656 8.58619L13.3433 8.42925L12.8615 6.9375H12.8606ZM12 9.46875C12.6713 9.46875 13.3152 9.73543 13.7899 10.2101C14.2646 10.6848 14.5313 11.3287 14.5313 12C14.5313 12.6713 14.2646 13.3152 13.7899 13.7899C13.3152 14.2646 12.6713 14.5312 12 14.5312C11.3287 14.5312 10.6848 14.2646 10.2101 13.7899C9.73543 13.3152 9.46875 12.6713 9.46875 12C9.46875 11.3287 9.73543 10.6848 10.2101 10.2101C10.6848 9.73543 11.3287 9.46875 12 9.46875ZM12 10.3125C11.5524 10.3125 11.1232 10.4903 10.8068 10.8068C10.4903 11.1232 10.3125 11.5524 10.3125 12C10.3125 12.4476 10.4903 12.8768 10.8068 13.1932C11.1232 13.5097 11.5524 13.6875 12 13.6875C12.4476 13.6875 12.8768 13.5097 13.1932 13.1932C13.5097 12.8768 13.6875 12.4476 13.6875 12C13.6875 11.5524 13.5097 11.1232 13.1932 10.8068C12.8768 10.4903 12.4476 10.3125 12 10.3125Z" fill="#FCA311"/>
</g>
</g>
<defs>
<clipPath id="clip0_2_1355">
<rect x="3" y="3" width="18" height="18" rx="4" fill="white"/>
</clipPath>
<clipPath id="clip1_2_1355">
<rect width="18" height="18" fill="white" transform="translate(3 3)"/>
</clipPath>
</defs>
</svg>
