<svg width="24" height="24" viewBox="0 0 24 24" fill="none" xmlns="http://www.w3.org/2000/svg">
<rect width="24" height="24" rx="6" fill="#F6EDDF"/>
<g clip-path="url(#clip0_2_1298)">
<path d="M6.65625 6.79688C6.65625 6.68499 6.6118 6.57768 6.53269 6.49856C6.45357 6.41945 6.34626 6.375 6.23438 6.375C6.12249 6.375 6.01518 6.41945 5.93606 6.49856C5.85695 6.57768 5.8125 6.68499 5.8125 6.79688V17.2031C5.8125 17.436 6.0015 17.625 6.23438 17.625H16.5C16.6119 17.625 16.7192 17.5806 16.7983 17.5014C16.8774 17.4223 16.9219 17.315 16.9219 17.2031C16.9219 17.0912 16.8774 16.9839 16.7983 16.9048C16.7192 16.8257 16.6119 16.7812 16.5 16.7812H6.65625V6.79688Z" fill="#FCA311"/>
<path d="M17.7825 9.62647C17.857 9.5465 17.8976 9.44072 17.8957 9.33142C17.8937 9.22213 17.8495 9.11785 17.7722 9.04056C17.6949 8.96326 17.5906 8.91899 17.4813 8.91706C17.372 8.91513 17.2662 8.9557 17.1862 9.03022L13.9687 12.2477L11.8762 10.1552C11.7971 10.0762 11.6899 10.0318 11.5781 10.0318C11.4663 10.0318 11.3591 10.0762 11.28 10.1552L7.90499 13.5302C7.86355 13.5688 7.8303 13.6154 7.80724 13.6672C7.78418 13.7189 7.77179 13.7748 7.77079 13.8314C7.76979 13.8881 7.78021 13.9443 7.80143 13.9969C7.82264 14.0494 7.85423 14.0971 7.89429 14.1372C7.93435 14.1772 7.98207 14.2088 8.0346 14.23C8.08713 14.2513 8.14339 14.2617 8.20004 14.2607C8.25668 14.2597 8.31255 14.2473 8.3643 14.2242C8.41605 14.2012 8.46262 14.1679 8.50124 14.1265L11.5781 11.0496L13.6706 13.1421C13.7497 13.2211 13.8569 13.2655 13.9687 13.2655C14.0805 13.2655 14.1878 13.2211 14.2669 13.1421L17.7825 9.62647Z" fill="#FCA311"/>
</g>
<defs>
<clipPath id="clip0_2_1298">
<rect width="13.5" height="13.5" fill="white" transform="translate(5.25 5.25)"/>
</clipPath>
</defs>
</svg>
