<svg width="24" height="24" viewBox="0 0 24 24" fill="none" xmlns="http://www.w3.org/2000/svg">
<rect width="24" height="24" rx="6" fill="#F6EDDF"/>
<g clip-path="url(#clip0_2_1326)">
<g clip-path="url(#clip1_2_1326)">
<g clip-path="url(#clip2_2_1326)">
<path d="M16.114 15.2918C14.6295 15.2918 13.7869 14.5941 13.229 14.1324C13.0317 13.969 12.8522 13.8115 12.6888 13.6686C12.4411 13.4511 12.1322 13.1801 12.0246 13.1426C12.0213 13.1426 11.9702 13.1403 11.967 13.1398C11.9498 13.1412 11.9063 13.1499 11.9018 13.1504C11.8275 13.1806 11.5636 13.4077 11.3515 13.5898C11.1591 13.7551 10.9397 13.9437 10.6917 14.1373L10.6465 14.172C10.0097 14.6691 9.21705 15.2876 7.81713 15.2876C6.7772 15.2876 5.75275 14.817 5.14267 14.059C4.73369 13.5509 4.30338 12.6671 4.57619 11.3421C4.60924 11.1818 4.72291 11.0506 4.87549 10.996C5.029 10.9407 5.19799 10.9709 5.32384 11.0747C5.33299 11.0815 5.65455 11.3288 6.18894 11.3288C6.458 11.3288 6.73831 11.2653 7.02144 11.1392C7.50681 10.9231 7.85252 10.317 8.21836 9.90777C8.71899 9.34879 9.28547 8.71527 10.2206 8.70801C10.8659 8.70801 11.4481 8.9466 11.9674 9.4184C12.4847 8.9487 13.0627 8.71151 13.6913 8.71151C14.6449 8.71877 15.2234 9.35276 15.7338 9.91268C16.1065 10.321 16.4585 10.9266 16.9439 11.1427C17.227 11.2685 17.5104 11.3323 17.786 11.3323C18.3408 11.3323 18.687 11.0787 18.7008 11.0677C18.8292 10.9725 18.9984 10.9477 19.1473 11.0058C19.2959 11.0644 19.4063 11.1945 19.436 11.3524C19.6863 12.6626 19.2462 13.541 18.8327 14.0473C18.2063 14.8149 17.1642 15.2918 16.114 15.2918ZM11.9814 12.2033C11.996 12.2033 12.0354 12.2046 12.0492 12.206C12.0497 12.206 12.1179 12.211 12.1179 12.2114C12.1228 12.2119 12.162 12.2168 12.1662 12.2178C12.5053 12.2658 12.8198 12.5419 13.2973 12.9603C13.4541 13.0981 13.6268 13.2495 13.8169 13.407C14.3264 13.8291 14.9609 14.3541 16.114 14.3541C16.8949 14.3541 17.663 14.0079 18.1176 13.4506C18.4165 13.0847 18.5719 12.649 18.5817 12.15C18.3616 12.2187 18.0942 12.27 17.786 12.27C17.3808 12.27 16.972 12.1793 16.5705 12.001C15.9077 11.7066 15.4528 10.9885 15.0518 10.5486C14.546 9.99379 14.2099 9.65371 13.7029 9.64949C13.0268 9.64949 12.5903 10.0751 12.3199 10.3953C12.2315 10.4996 12.1028 10.5596 11.9669 10.5596C11.831 10.5596 11.7021 10.4991 11.6142 10.3948C11.3428 10.0735 10.905 9.64598 10.2396 9.64598C9.72558 9.64974 9.39863 9.98701 8.90668 10.5373C8.51035 10.9801 8.06152 11.7015 7.3945 11.9975C6.99325 12.1761 6.58732 12.2665 6.18888 12.2665C5.89005 12.2665 5.6313 12.2166 5.41802 12.1489C5.41755 12.6575 5.56613 13.0997 5.86238 13.4677C6.3009 14.0119 7.04949 14.3504 7.81705 14.3504C8.90104 14.3504 9.5001 13.8826 10.0797 13.4302L10.1249 13.3948C10.36 13.2113 10.5679 13.0323 10.7503 12.8757C11.1679 12.5169 11.4436 12.2796 11.7412 12.2269C11.7414 12.2272 11.8832 12.2033 11.9814 12.2033Z" fill="#FCA311"/>
</g>
</g>
</g>
<defs>
<clipPath id="clip0_2_1326">
<rect x="3" y="3" width="18" height="18" rx="4" fill="white"/>
</clipPath>
<clipPath id="clip1_2_1326">
<rect width="18" height="18" fill="white" transform="translate(3 3)"/>
</clipPath>
<clipPath id="clip2_2_1326">
<rect width="15" height="15" fill="white" transform="translate(4.5 4.5)"/>
</clipPath>
</defs>
</svg>
