<svg width="24" height="24" viewBox="0 0 24 24" fill="none" xmlns="http://www.w3.org/2000/svg">
<rect width="24" height="24" rx="6" fill="#F6EDDF"/>
<g clip-path="url(#clip0_2_1349)">
<g clip-path="url(#clip1_2_1349)">
<path d="M16.2188 13.6875H13.6875V12.8438H16.2188V13.6875ZM17.9062 17.0625H15.375V16.2188H17.9062V17.0625ZM17.0625 15.375H14.5312V14.5312H17.0625V15.375Z" fill="#FCA311"/>
<path d="M12.4231 13.6875C12.4202 13.3315 12.3252 12.9824 12.1475 12.6739C11.9698 12.3654 11.7154 12.1082 11.4089 11.927L14.5312 6.51562L13.8014 6.09375L10.6049 11.6313C10.2126 11.5436 9.80454 11.5558 9.41813 11.6665C9.03172 11.7773 8.67925 11.9832 8.39296 12.2654C6.81346 13.7887 6.93581 17.3502 6.94171 17.5013C6.94607 17.6102 6.99244 17.7132 7.07109 17.7887C7.14974 17.8642 7.25456 17.9063 7.36359 17.9062H13.6879C13.7765 17.9062 13.8628 17.8784 13.9346 17.8266C14.0064 17.7748 14.0601 17.7018 14.0881 17.6178C14.1161 17.5338 14.117 17.4431 14.0906 17.3586C14.0642 17.2741 14.0119 17.2 13.941 17.1469C12.4476 16.0264 12.4231 13.7103 12.4231 13.6875ZM10.283 12.4206C10.6206 12.4243 10.9438 12.5581 11.1854 12.794C11.4269 13.03 11.5682 13.35 11.5798 13.6875C11.5798 13.7035 11.5806 13.7752 11.587 13.8854L9.09792 12.7784C9.26187 12.6432 9.45107 12.5419 9.65452 12.4805C9.85796 12.4191 10.0716 12.3987 10.283 12.4206ZM11.768 17.0625C11.4308 16.7191 11.2158 16.2744 11.1562 15.7969H10.3125C10.3427 16.2459 10.483 16.6805 10.7209 17.0625H9.78304C9.60954 16.515 9.50399 15.9483 9.46874 15.375H8.62499C8.6522 15.9465 8.74636 16.5129 8.90554 17.0625H7.78124C7.79432 16.2879 7.90359 14.5768 8.54188 13.4542L11.7199 14.8675C11.8726 15.6603 12.1981 16.4098 12.6733 17.0625H11.768Z" fill="#FCA311"/>
</g>
</g>
<defs>
<clipPath id="clip0_2_1349">
<rect x="3" y="3" width="18" height="18" rx="4" fill="white"/>
</clipPath>
<clipPath id="clip1_2_1349">
<rect width="18" height="18" fill="white" transform="translate(3 3)"/>
</clipPath>
</defs>
</svg>
