<svg width="24" height="24" viewBox="0 0 24 24" fill="none" xmlns="http://www.w3.org/2000/svg">
<rect width="24" height="24" rx="6" fill="#F6EDDF"/>
<g clip-path="url(#clip0_2_1292)">
<g clip-path="url(#clip1_2_1292)">
<path d="M18 12.0005V11.9975C18 10.222 17.227 8.62749 15.9995 7.53099L15.9935 7.52599C15.9783 7.50965 15.9614 7.49505 15.943 7.48249L15.942 7.48199C14.8518 6.52475 13.4498 5.99816 11.999 6.00099C10.483 6.00099 9.099 6.56399 8.044 7.49299L8.0505 7.48749C8.03779 7.49713 8.02606 7.50802 8.0155 7.51999C7.38127 8.08158 6.8736 8.77203 6.52613 9.54463C6.17866 10.3172 5.99933 11.1548 6 12.002C6 13.777 6.772 15.3715 7.9985 16.4685L8.0045 16.4735C8.02038 16.4915 8.03815 16.5078 8.0575 16.522L8.0585 16.5225C9.14842 17.4783 10.5493 18.0041 11.999 18.0015C13.4554 18.0037 14.8624 17.473 15.9545 16.5095L15.948 16.515C16.5932 15.954 17.1104 15.261 17.4646 14.4828C17.8188 13.7047 18.0017 12.8595 18.001 12.0045V12.001L18 12.0005ZM15.769 15.903C15.4718 15.6626 15.1521 15.4513 14.8145 15.272L14.782 15.256C15.0885 14.3725 15.273 13.354 15.2905 12.2945V12.2865H17.421C17.3492 13.6572 16.7592 14.9494 15.7705 15.9015L15.769 15.903ZM12.286 15.1505C12.9275 15.185 13.527 15.326 14.08 15.5555L14.044 15.5425C13.601 16.5525 12.9775 17.2465 12.286 17.399V15.1505ZM12.286 14.5785V12.2865H14.72C14.7007 13.2356 14.5361 14.1762 14.232 15.0755L14.2515 15.01C13.6307 14.7548 12.9705 14.609 12.3 14.579L12.2865 14.5785H12.286ZM12.286 11.7145V9.42249C12.9746 9.39106 13.6525 9.24032 14.2895 8.97699L14.25 8.99149C14.5275 9.80099 14.698 10.734 14.72 11.704V11.7145H12.286ZM12.286 8.85049V6.60299C12.9775 6.75549 13.601 7.44649 14.044 8.45949C13.527 8.67449 12.9275 8.81499 12.3005 8.84999L12.286 8.85049ZM13.713 6.85049C14.3022 7.04701 14.8532 7.34332 15.342 7.72649L15.3305 7.71749C15.109 7.89149 14.8605 8.05549 14.5985 8.19799L14.5705 8.21199C14.3588 7.71235 14.0677 7.25022 13.7085 6.84349L13.713 6.84899V6.85049ZM11.713 6.60449V8.85049C11.0962 8.81902 10.4895 8.68204 9.919 8.44549L9.955 8.45849C10.4 7.44849 11.0225 6.75499 11.714 6.60249L11.713 6.60449ZM9.429 8.21049C9.15797 8.06467 8.89972 7.89624 8.657 7.70699L8.669 7.71599C9.14357 7.34406 9.67736 7.05469 10.248 6.85999L10.286 6.84849C9.93621 7.2442 9.65119 7.69274 9.4415 8.17749L9.429 8.21049ZM11.714 9.42199V11.714H9.28C9.302 10.7335 9.4725 9.80049 9.7695 8.92549L9.75 8.99099C10.3705 9.24572 11.0304 9.39136 11.7005 9.42149L11.714 9.42199ZM11.714 12.286V14.578C11.0254 14.6094 10.3475 14.7602 9.7105 15.0235L9.75 15.009C9.4725 14.2 9.302 13.2665 9.28 12.2965V12.286H11.714ZM11.714 15.15V17.3975C11.0225 17.245 10.399 16.554 9.956 15.541C10.473 15.326 11.0725 15.186 11.6995 15.151L11.714 15.15ZM10.289 17.15C9.69998 16.954 9.14897 16.6584 8.66 16.276L8.672 16.285C8.8935 16.111 9.142 15.947 9.404 15.8045L9.432 15.7905C9.64194 16.2903 9.93303 16.752 10.2935 17.157L10.289 17.152V17.15ZM14.571 15.79C14.861 15.9475 15.1095 16.111 15.343 16.2935L15.331 16.2845C14.8564 16.6564 14.3226 16.9458 13.752 17.1405L13.714 17.152C14.0638 16.7565 14.3488 16.3081 14.5585 15.8235L14.571 15.791V15.79ZM17.421 11.7145H15.2905C15.2752 10.68 15.0966 9.65434 14.7615 8.67549L14.782 8.74449C15.1352 8.55852 15.4696 8.33883 15.7805 8.08849L15.7685 8.09749C16.7551 9.046 17.3453 10.3334 17.42 11.7L17.4205 11.714L17.421 11.7145ZM8.231 8.09799C8.519 8.33199 8.8425 8.54649 9.1855 8.72899L9.218 8.74499C8.9115 9.62849 8.727 10.647 8.7095 11.7065V11.7145H6.5785C6.65035 10.3438 7.24033 9.05159 8.229 8.09949L8.231 8.09799ZM6.579 12.2865H8.7095C8.72483 13.321 8.90336 14.3466 9.2385 15.3255L9.218 15.2565C8.8425 15.456 8.5195 15.6705 8.2195 15.9125L8.2315 15.9035C7.24487 14.955 6.65468 13.6676 6.58 12.301L6.5795 12.287L6.579 12.2865Z" fill="#FCA311"/>
</g>
</g>
<defs>
<clipPath id="clip0_2_1292">
<rect x="3" y="3" width="18" height="18" rx="4" fill="white"/>
</clipPath>
<clipPath id="clip1_2_1292">
<rect width="12" height="12" fill="white" transform="translate(6 6)"/>
</clipPath>
</defs>
</svg>
