<svg width="24" height="24" viewBox="0 0 24 24" fill="none" xmlns="http://www.w3.org/2000/svg">
<rect width="24" height="24" rx="6" fill="#F6EDDF"/>
<path d="M9.30017 7.5H7.20018C6.95166 7.5 6.75018 7.74177 6.75018 8.04V15.96C6.75018 16.2582 6.95166 16.5 7.20018 16.5H9.30017C9.54874 16.5 9.75017 16.2582 9.75017 15.96V8.04C9.75017 7.74177 9.54874 7.5 9.30017 7.5Z" stroke="#FCA311" stroke-linecap="round" stroke-linejoin="round"/>
<path d="M16.8 7.5H14.7C14.4514 7.5 14.25 7.74177 14.25 8.04V15.96C14.25 16.2582 14.4514 16.5 14.7 16.5H16.8C17.0486 16.5 17.25 16.2582 17.25 15.96V8.04C17.25 7.74177 17.0486 7.5 16.8 7.5Z" stroke="#FCA311" stroke-linecap="round" stroke-linejoin="round"/>
<path d="M4.50018 13.2V10.8C4.50018 10.6343 4.70166 10.5 4.95018 10.5H6.30018C6.54871 10.5 6.75018 10.6343 6.75018 10.8V13.2C6.75018 13.3657 6.54871 13.5 6.30018 13.5H4.95018C4.70166 13.5 4.50018 13.3657 4.50018 13.2Z" stroke="#FCA311" stroke-linecap="round" stroke-linejoin="round"/>
<path d="M19.4998 13.2V10.8C19.4998 10.6343 19.2984 10.5 19.0498 10.5H17.6998C17.4512 10.5 17.2498 10.6343 17.2498 10.8V13.2C17.2498 13.3657 17.4512 13.5 17.6998 13.5H19.0498C19.2984 13.5 19.4998 13.3657 19.4998 13.2Z" stroke="#FCA311" stroke-linecap="round" stroke-linejoin="round"/>
<path d="M9.75 12H14.25" stroke="#FCA311" stroke-linecap="round" stroke-linejoin="round"/>
</svg>
