<svg width="25" height="24" viewBox="0 0 25 24" fill="none" xmlns="http://www.w3.org/2000/svg">
<rect x="0.666687" width="24" height="24" rx="6" fill="white"/>
<path d="M13.2294 6.5625L17.3544 10.6875M13.2294 6.5625V9.18748C13.2294 10.0159 13.9009 10.6875 14.7294 10.6875H17.3544M13.2294 6.5625H11.3544H9.47939C8.65094 6.5625 7.97937 7.23407 7.97937 8.0625V15.9375C7.97937 16.7659 8.65094 17.4375 9.47939 17.4375H15.8544C16.6828 17.4375 17.3544 16.7659 17.3544 15.9375V10.6875" stroke="#FCA311" stroke-linecap="round" stroke-linejoin="round"/>
<path d="M7.97937 8.0625C7.97937 7.23407 8.65094 6.5625 9.47939 6.5625H11.3544H13.2294V9.18749C13.2294 10.0159 13.9009 10.6875 14.7294 10.6875H17.3544V15.9375C17.3544 16.7659 16.6828 17.4375 15.8544 17.4375H9.47939C8.65094 17.4375 7.97937 16.7659 7.97937 15.9375V8.0625Z" stroke="#FCA311" stroke-linecap="round" stroke-linejoin="round"/>
<path d="M10.2294 14.8125H15.1044" stroke="#FCA311" stroke-linecap="round" stroke-linejoin="round"/>
<path d="M10.2294 12.5625H12.1044" stroke="#FCA311" stroke-linecap="round" stroke-linejoin="round"/>
</svg>
