<svg width="24" height="24" viewBox="0 0 24 24" fill="none" xmlns="http://www.w3.org/2000/svg">
<rect width="24" height="24" rx="6" fill="#F6EDDF"/>
<g clip-path="url(#clip0_2_1343)">
<g clip-path="url(#clip1_2_1343)">
<path d="M17.7283 11.9076L12.6341 6.81612L12.2927 6.47467C12.2149 6.39738 12.1097 6.354 12 6.354C11.8903 6.354 11.7851 6.39738 11.7073 6.47467L6.27173 11.9076C6.19201 11.987 6.129 12.0816 6.08643 12.1858C6.04386 12.2899 6.02259 12.4016 6.02387 12.5141C6.02915 12.9781 6.41543 13.3486 6.87949 13.3486H7.43979V17.6425H16.5602V13.3486H17.1324C17.3578 13.3486 17.5701 13.2603 17.7296 13.1007C17.8081 13.0224 17.8704 12.9293 17.9127 12.8268C17.955 12.7243 17.9766 12.6144 17.9761 12.5035C17.9761 12.2794 17.8878 12.0671 17.7283 11.9076ZM12.7383 16.6933H11.2617V14.0038H12.7383V16.6933ZM15.611 12.3994V16.6933H13.582V13.6874C13.582 13.3961 13.346 13.1601 13.0547 13.1601H10.9453C10.654 13.1601 10.418 13.3961 10.418 13.6874V16.6933H8.38901V12.3994H7.12339L12.0013 7.5254L12.3059 7.82994L16.8779 12.3994H15.611Z" fill="#FCA311"/>
</g>
</g>
<defs>
<clipPath id="clip0_2_1343">
<rect x="3" y="3" width="18" height="18" rx="4" fill="white"/>
</clipPath>
<clipPath id="clip1_2_1343">
<rect width="18" height="18" fill="white" transform="translate(3 3)"/>
</clipPath>
</defs>
</svg>
