<svg width="24" height="24" viewBox="0 0 24 24" fill="none" xmlns="http://www.w3.org/2000/svg">
<rect width="24" height="24" rx="6" fill="#F6EDDF"/>
<path d="M6.56232 10.3125C6.56232 9.48407 7.23389 8.8125 8.06231 8.8125H15.9373C16.7658 8.8125 17.4373 9.48407 17.4373 10.3125V15.9375C17.4373 16.7659 16.7658 17.4375 15.9373 17.4375H8.06231C7.23389 17.4375 6.56232 16.7659 6.56232 15.9375V10.3125Z" stroke="#FCA311" stroke-linecap="round" stroke-linejoin="round"/>
<path d="M9.56268 8.62498V8.0625C9.56268 7.23407 10.2343 6.5625 11.0627 6.5625H12.9377C13.7661 6.5625 14.4377 7.23407 14.4377 8.0625V8.62498" stroke="#FCA311" stroke-linecap="round" stroke-linejoin="round"/>
<path d="M6.75018 12.9375H17.2502" stroke="#FCA311" stroke-linecap="round" stroke-linejoin="round"/>
<path d="M9.56268 11.8125V13.6875" stroke="#FCA311" stroke-linecap="round" stroke-linejoin="round"/>
<path d="M14.4373 11.8125V13.6875" stroke="#FCA311" stroke-linecap="round" stroke-linejoin="round"/>
</svg>
