<svg width="24" height="24" viewBox="0 0 24 24" fill="none" xmlns="http://www.w3.org/2000/svg">
<rect width="24" height="24" rx="6" fill="#F6EDDF"/>
<path d="M9.34374 14.5C9.55094 14.5 9.74966 14.4177 9.89617 14.2712C10.0427 14.1247 10.125 13.926 10.125 13.7188C10.125 13.5115 10.0427 13.3128 9.89617 13.1663C9.74966 13.0198 9.55094 12.9375 9.34374 12.9375C9.13654 12.9375 8.93783 13.0198 8.79132 13.1663C8.6448 13.3128 8.56249 13.5115 8.56249 13.7188C8.56249 13.926 8.6448 14.1247 8.79132 14.2712C8.93783 14.4177 9.13654 14.5 9.34374 14.5ZM12.7812 13.7188C12.7812 13.926 12.6989 14.1247 12.5524 14.2712C12.4059 14.4177 12.2072 14.5 12 14.5C11.7928 14.5 11.5941 14.4177 11.4476 14.2712C11.3011 14.1247 11.2187 13.926 11.2187 13.7188C11.2187 13.5115 11.3011 13.3128 11.4476 13.1663C11.5941 13.0198 11.7928 12.9375 12 12.9375C12.2072 12.9375 12.4059 13.0198 12.5524 13.1663C12.6989 13.3128 12.7812 13.5115 12.7812 13.7188ZM14.6562 14.5C14.8634 14.5 15.0622 14.4177 15.2087 14.2712C15.3552 14.1247 15.4375 13.926 15.4375 13.7188C15.4375 13.5115 15.3552 13.3128 15.2087 13.1663C15.0622 13.0198 14.8634 12.9375 14.6562 12.9375C14.449 12.9375 14.2503 13.0198 14.1038 13.1663C13.9573 13.3128 13.875 13.5115 13.875 13.7188C13.875 13.926 13.9573 14.1247 14.1038 14.2712C14.2503 14.4177 14.449 14.5 14.6562 14.5ZM7.54562 6.77062C7.64824 6.64686 7.77689 6.54724 7.9224 6.47885C8.06791 6.41047 8.22671 6.37501 8.38749 6.375H15.6125C15.9381 6.375 16.2469 6.52 16.455 6.77062L18.6925 9.47062C19.115 9.97938 18.7531 10.75 18.0912 10.75H17.625V16.2188C17.625 16.6332 17.4604 17.0306 17.1673 17.3236C16.8743 17.6166 16.4769 17.7812 16.0625 17.7812H7.93749C7.52309 17.7812 7.12566 17.6166 6.83264 17.3236C6.53961 17.0306 6.37499 16.6332 6.37499 16.2188V10.75H5.90874C5.24749 10.75 4.88562 9.97938 5.30749 9.47L7.54562 6.77062ZM8.38749 7.3125C8.36459 7.31251 8.34197 7.31755 8.32123 7.32727C8.3005 7.33699 8.28215 7.35115 8.26749 7.36875L6.24124 9.8125H17.7587L15.7331 7.36875C15.7184 7.35107 15.6999 7.33686 15.6791 7.32714C15.6582 7.31742 15.6355 7.31242 15.6125 7.3125H8.38749ZM7.31249 10.75V16.2188C7.31249 16.3845 7.37834 16.5435 7.49555 16.6607C7.61276 16.7779 7.77173 16.8438 7.93749 16.8438H16.0625C16.2283 16.8438 16.3872 16.7779 16.5044 16.6607C16.6216 16.5435 16.6875 16.3845 16.6875 16.2188V10.75H7.31249Z" fill="#FCA311"/>
</svg>
