<svg width="24" height="24" viewBox="0 0 24 24" fill="none" xmlns="http://www.w3.org/2000/svg">
<rect width="24" height="24" rx="6" fill="#F6EDDF"/>
<path d="M9.59346 8.5C9.59346 9.5873 8.71202 10.4687 7.62469 10.4687C6.53738 10.4687 5.65594 9.5873 5.65594 8.5C5.65594 7.41269 6.53738 6.53125 7.62469 6.53125C8.71202 6.53125 9.59346 7.41269 9.59346 8.5Z" stroke="#FCA311" stroke-linecap="round" stroke-linejoin="round"/>
<path d="M9.59346 15.5C9.59346 16.5873 8.71202 17.4688 7.62469 17.4688C6.53738 17.4688 5.65594 16.5873 5.65594 15.5C5.65594 14.4127 6.53738 13.5312 7.62469 13.5312C8.71202 13.5312 9.59346 14.4127 9.59346 15.5Z" stroke="#FCA311" stroke-linecap="round" stroke-linejoin="round"/>
<path d="M9.37482 14.625L18.3436 7.40625" stroke="#FCA311" stroke-linecap="round" stroke-linejoin="round"/>
<path d="M9.37482 9.375L18.3436 15.7188" stroke="#FCA311" stroke-linecap="round" stroke-linejoin="round"/>
</svg>
