<svg width="136" height="40" viewBox="0 0 136 40" fill="none" xmlns="http://www.w3.org/2000/svg">
<circle cx="15" cy="15" r="10" fill="white" style="mix-blend-mode:plus-lighter"/>
<circle cx="25" cy="25" r="10" fill="#FCA311" style="mix-blend-mode:plus-lighter"/>
<path d="M129.802 31.1786C128.868 31.1786 127.962 31.0688 127.083 30.8491C126.204 30.6293 125.426 30.3135 124.748 29.9015L124.323 30.9315H121.301V25.7679H124.817C125.027 26.482 125.394 27.045 125.916 27.457C126.437 27.869 127.005 28.075 127.618 28.075C128.424 28.075 128.827 27.7729 128.827 27.1686C128.827 26.7292 128.644 26.3904 128.278 26.1524C127.921 25.9144 127.454 25.713 126.877 25.5482C126.309 25.3834 125.705 25.2048 125.064 25.0126C124.423 24.8203 123.814 24.5594 123.238 24.2298C122.67 23.8911 122.203 23.4333 121.837 22.8565C121.48 22.2706 121.301 21.5061 121.301 20.5631C121.301 19.7117 121.526 18.938 121.974 18.2422C122.432 17.5464 123.119 16.9926 124.034 16.5806C124.959 16.1594 126.117 15.9489 127.509 15.9489C128.406 15.9489 129.234 16.045 129.994 16.2372C130.763 16.4203 131.482 16.7179 132.15 17.1299L132.48 16.2098H135.501V20.9339H131.985C131.747 20.2381 131.404 19.73 130.956 19.4095C130.516 19.08 130.04 18.9152 129.527 18.9152C128.63 18.9152 128.181 19.1898 128.181 19.7391C128.181 20.1237 128.365 20.4304 128.731 20.6592C129.106 20.879 129.582 21.0712 130.159 21.236C130.745 21.4008 131.363 21.5885 132.013 21.7991C132.663 22.0096 133.276 22.2935 133.853 22.6505C134.439 23.0076 134.915 23.4836 135.281 24.0787C135.657 24.6738 135.844 25.4474 135.844 26.3996C135.844 27.8553 135.318 29.018 134.265 29.8878C133.221 30.7484 131.734 31.1786 129.802 31.1786Z" fill="white"/>
<path d="M109.079 30.9315V26.8116H111.208V20.5082H109.079V16.7591L117.799 15.9489V26.8116H119.928V30.9315H109.079ZM114.503 15.0287C113.304 15.0287 112.343 14.7404 111.62 14.1636C110.905 13.5868 110.548 12.8223 110.548 11.8702C110.548 10.918 110.905 10.1673 111.62 9.61798C112.334 9.05951 113.3 8.78027 114.517 8.78027C115.762 8.78027 116.728 9.05035 117.415 9.59052C118.111 10.1307 118.459 10.8906 118.459 11.8702C118.459 12.8406 118.102 13.6097 117.387 14.1773C116.682 14.7449 115.721 15.0287 114.503 15.0287Z" fill="white"/>
<path d="M101.485 31.1786C100.551 31.1786 99.6445 31.0688 98.7656 30.8491C97.8867 30.6293 97.1085 30.3135 96.431 29.9015L96.0052 30.9315H92.984V25.7679H96.4996C96.7102 26.482 97.0764 27.045 97.5983 27.457C98.1201 27.869 98.6877 28.075 99.3011 28.075C100.107 28.075 100.51 27.7729 100.51 27.1686C100.51 26.7292 100.327 26.3904 99.9603 26.1524C99.6033 25.9144 99.1364 25.713 98.5596 25.5482C97.9919 25.3834 97.3877 25.2048 96.7468 25.0126C96.106 24.8203 95.4971 24.5594 94.9203 24.2298C94.3527 23.8911 93.8858 23.4333 93.5196 22.8565C93.1625 22.2706 92.984 21.5061 92.984 20.5631C92.984 19.7117 93.2083 18.938 93.6569 18.2422C94.1147 17.5464 94.8013 16.9926 95.7169 16.5806C96.6415 16.1594 97.7997 15.9489 99.1913 15.9489C100.089 15.9489 100.917 16.045 101.677 16.2372C102.446 16.4203 103.165 16.7179 103.833 17.1299L104.163 16.2098H107.184V20.9339H103.668C103.43 20.2381 103.087 19.73 102.638 19.4095C102.199 19.08 101.723 18.9152 101.21 18.9152C100.313 18.9152 99.8642 19.1898 99.8642 19.7391C99.8642 20.1237 100.047 20.4304 100.414 20.6592C100.789 20.879 101.265 21.0712 101.842 21.236C102.428 21.4008 103.046 21.5885 103.696 21.7991C104.346 22.0096 104.959 22.2935 105.536 22.6505C106.122 23.0076 106.598 23.4836 106.964 24.0787C107.339 24.6738 107.527 25.4474 107.527 26.3996C107.527 27.8553 107.001 29.018 105.948 29.8878C104.904 30.7484 103.416 31.1786 101.485 31.1786Z" fill="white"/>
<path d="M78.6194 31.1786C77.6764 31.1786 76.8341 30.991 76.0925 30.6156C75.3601 30.2311 74.7833 29.7047 74.3622 29.0363C73.9502 28.368 73.7442 27.5989 73.7442 26.7292C73.7442 25.3742 74.2661 24.2939 75.3098 23.4882C76.3535 22.6826 77.7451 22.2797 79.4846 22.2797C80.0888 22.2797 80.6656 22.3163 81.2149 22.3896C81.7642 22.4628 82.3227 22.5864 82.8903 22.7604V22.4583C82.8903 21.6251 82.634 21.0209 82.1213 20.6455C81.6177 20.2701 80.8075 20.0825 79.6906 20.0825C78.8849 20.0825 78.0701 20.1877 77.2461 20.3983C76.4221 20.6089 75.6714 20.9019 74.9939 21.2772L74.6231 21.1124V17.1024C75.5844 16.7271 76.6739 16.4432 77.8915 16.251C79.1183 16.0587 80.3497 15.9626 81.5857 15.9626C84.3231 15.9626 86.3235 16.4203 87.587 17.3359C88.8504 18.2514 89.4821 19.7208 89.4821 21.7441V26.8116H91.2674V30.9315H83.7692L83.0963 28.7754C82.666 29.5261 82.0526 30.1166 81.2561 30.5469C80.4688 30.9681 79.5898 31.1786 78.6194 31.1786ZM81.4896 27.663C81.7368 27.663 81.9931 27.6218 82.2586 27.5394C82.5333 27.4479 82.7438 27.3289 82.8903 27.1824V24.889C82.6614 24.7883 82.428 24.7196 82.1899 24.683C81.9611 24.6464 81.7459 24.6281 81.5445 24.6281C81.0776 24.6281 80.6839 24.7654 80.3635 25.04C80.0522 25.3147 79.8965 25.6809 79.8965 26.1387C79.8965 26.6056 80.043 26.9764 80.336 27.251C80.629 27.5257 81.0135 27.663 81.4896 27.663Z" fill="white"/>
<path d="M60.9863 31.3297C58.725 31.3297 56.7703 30.8765 55.1224 29.9702C53.4836 29.0546 52.2202 27.75 51.3321 26.0563C50.444 24.3625 50 22.353 50 20.0275C50 17.6838 50.444 15.665 51.3321 13.9713C52.2202 12.2684 53.4836 10.9592 55.1224 10.0437C56.7703 9.12817 58.725 8.67041 60.9863 8.67041C63.2568 8.67041 65.2115 9.12817 66.8503 10.0437C68.4891 10.9592 69.7525 12.2684 70.6406 13.9713C71.5286 15.665 71.9727 17.6838 71.9727 20.0275C71.9727 22.353 71.5286 24.3625 70.6406 26.0563C69.7525 27.75 68.4891 29.0546 66.8503 29.9702C65.2115 30.8765 63.2568 31.3297 60.9863 31.3297ZM60.9863 26.5919C62.0117 26.5919 62.7991 26.0334 63.3484 24.9164C63.8977 23.7995 64.1724 22.1561 64.1724 19.9863C64.1724 17.8165 63.8977 16.1732 63.3484 15.0562C62.7991 13.9393 62.0117 13.3808 60.9863 13.3808C59.9609 13.3808 59.1736 13.9393 58.6243 15.0562C58.075 16.1732 57.8003 17.8165 57.8003 19.9863C57.8003 22.1561 58.075 23.7995 58.6243 24.9164C59.1736 26.0334 59.9609 26.5919 60.9863 26.5919Z" fill="white"/>
</svg>
